<?xml version="1.0" encoding="UTF-8" standalone="no"?><svg xmlns="http://www.w3.org/2000/svg" xmlns:xlink="http://www.w3.org/1999/xlink" contentScriptType="text/ecmascript" fill="#000000" width="307" zoomAndPan="magnify" contentStyleType="text/css" viewBox="96.7 28.2 306.7 443.6" height="444" preserveAspectRatio="xMidYMid meet" version="1"><g id="change1_1"><path d="M102.244133,254.6233978l3.3215179,2.7787323c6.198494,5.1854858,15.2592773,4.7877502,20.9781418-0.9224854 l67.0368195-66.937973c0.2571106-0.2565613,0.6228333-0.3291321,0.9582062-0.1899872 c0.3353882,0.1391602,0.5425262,0.449295,0.5425262,0.8122864v107.6367188c0,0.0561218-0.0042267,0.1039734-0.0144348,0.1593933 l-28.6359253,155.4514771c-1.7704773,9.6110229,5.5298462,18.379364,15.3026428,18.379364h6.4084473 c6.9522858,0,12.84935-4.3644104,14.8810577-11.0132446l46.13591-150.9910889 c0.1148682-0.3757629,0.4480591-0.6223145,0.8409576-0.6223145s0.7259979,0.2465515,0.8409576,0.6223145l46.13591,150.9910889 c2.0317078,6.6488342,7.928772,11.0132446,14.881073,11.0132446c7.2303772,0,13.0427551,0.789856,18.366333-5.6040955 c3.0599365-3.6748352,4.2111206-8.0722351,3.3447571-12.7752686L304.933075,297.960083 c-0.0101929-0.0554199-0.0144043-0.1032715-0.0144043-0.1593933V190.1639709c0-0.3629913,0.2071228-0.6731262,0.542511-0.8122864 c0.3352966-0.1391449,0.7011108-0.0665741,0.9580994,0.1899872l67.0369263,66.937973 c5.7188721,5.7102356,14.7795715,6.1079712,20.9780579,0.9224854l3.3215942-2.7787323 c6.4832153-5.4231567,7.4456482-15.0611115,2.1628723-21.6595459c-26.1202087-32.6251221-72.3862-91.7102051-99.5653076-108.9855423 c-0.0086975-0.005455-0.0161743-0.0102081-0.0251465-0.0154877C284.7992554,114.8153152,267.3995361,110.2413864,250,110.2413864 s-34.7992401,4.5739288-50.3282776,13.7214355c-0.0089722,0.0052795-0.016449,0.0100327-0.0251617,0.0154877 c-27.1790924,17.2753372-73.4453583,76.3604202-99.5652847,108.9855423 C94.7985001,239.562027,95.7609253,249.2002411,102.244133,254.6233978L102.244133,254.6233978z M249.9997406,28.1780796 c19.2736969,0,34.8981781,15.6243,34.8981781,34.8980179c0,19.2736511-15.6244812,34.8982162-34.8981781,34.8982162 c-19.2737274,0-34.897934-15.6245651-34.897934-34.8982162C215.1018066,43.8023796,230.7260132,28.1780796,249.9997406,28.1780796z" clip-rule="evenodd" fill-rule="evenodd"/></g></svg>